ffmpeg version 4.2.4-1ubuntu0.1 Copyright (c) 2000-2020 the FFmpeg developers
  built with gcc 9 (Ubuntu 9.3.0-10ubuntu2)
  configuration: --prefix=/usr --extra-version=1ubuntu0.1 --toolchain=hardened --libdir=/usr/lib/x86_64-linux-gnu --incdir=/usr/include/x86_64-linux-gnu --arch=amd64 --enable-gpl --disable-stripping --enable-avresample --disable-filter=resample --enable-avisynth --enable-gnutls --enable-ladspa --enable-libaom --enable-libass --enable-libbluray --enable-libbs2b --enable-libcaca --enable-libcdio --enable-libcodec2 --enable-libflite --enable-libfontconfig --enable-libfreetype --enable-libfribidi --enable-libgme --enable-libgsm --enable-libjack --enable-libmp3lame --enable-libmysofa --enable-libopenjpeg --enable-libopenmpt --enable-libopus --enable-libpulse --enable-librsvg --enable-librubberband --enable-libshine --enable-libsnappy --enable-libsoxr --enable-libspeex --enable-libssh --enable-libtheora --enable-libtwolame --enable-libvidstab --enable-libvorbis --enable-libvpx --enable-libwavpack --enable-libwebp --enable-libx265 --enable-libxml2 --enable-libxvid --enable-libzmq --enable-libzvbi --enable-lv2 --enable-omx --enable-openal --enable-opencl --enable-opengl --enable-sdl2 --enable-libdc1394 --enable-libdrm --enable-libiec61883 --enable-nvenc --enable-chromaprint --enable-frei0r --enable-libx264 --enable-shared
  libavutil      56. 31.100 / 56. 31.100
  libavcodec     58. 54.100 / 58. 54.100
  libavformat    58. 29.100 / 58. 29.100
  libavdevice    58.  8.100 / 58.  8.100
  libavfilter     7. 57.100 /  7. 57.100
  libavresample   4.  0.  0 /  4.  0.  0
  libswscale      5.  5.100 /  5.  5.100
  libswresample   3.  5.100 /  3.  5.100
  libpostproc    55.  5.100 / 55.  5.100
Input #0, image2, from './Cubo/Cubo%02d.png':
  Duration: 00:00:04.00, start: 0.000000, bitrate: N/A
    Stream #0:0: Video: png, rgb24(pc), 320x240, 25 fps, 25 tbr, 25 tbn, 25 tbc
Stream mapping:
  Stream #0:0 -> #0:0 (png (native) -> h264 (libx264))
Press [q] to stop, [?] for help
[libx264 @ 0x55f32f0d3a80] using cpu capabilities: MMX2 SSE2Fast SSSE3 SSE4.2 AVX FMA3 BMI2 AVX2
[libx264 @ 0x55f32f0d3a80] profile High 4:4:4 Predictive, level 1.2, 4:4:4 8-bit
Output #0, avi, to 'exercici6/cubo_h264_g100_ref0_r20.avi':
  Metadata:
    ISFT            : Lavf58.29.100
    Stream #0:0: Video: h264 (libx264) (H264 / 0x34363248), yuv444p, 320x240, q=-1--1, 20 fps, 20 tbn, 20 tbc
    Metadata:
      encoder         : Lavc58.54.100 libx264
    Side data:
      cpb: bitrate max/min/avg: 0/0/0 buffer size: 0 vbv_delay: -1
frame=   81 fps=0.0 q=-1.0 Lsize=     361kB time=00:00:03.95 bitrate= 748.7kbits/s dup=0 drop=19 speed=20.4x    
video:354kB audio:0kB subtitle:0kB other streams:0kB global headers:0kB muxing overhead: 2.118855%
bench: utime=0.630s stime=0.021s rtime=0.194s
bench: maxrss=91276kB
[libx264 @ 0x55f32f0d3a80] frame I:13    Avg QP:24.38  size:  6721
[libx264 @ 0x55f32f0d3a80] frame P:20    Avg QP:27.59  size:  4905
[libx264 @ 0x55f32f0d3a80] frame B:48    Avg QP:28.73  size:  3677
[libx264 @ 0x55f32f0d3a80] consecutive B-frames: 16.0%  0.0% 44.4% 39.5%
[libx264 @ 0x55f32f0d3a80] mb I  I16..4: 20.6%  0.0% 79.4%
[libx264 @ 0x55f32f0d3a80] mb P  I16..4: 14.5%  0.0% 61.3%  P16..4:  9.7%  8.2%  3.4%  0.0%  0.0%    skip: 2.9%
[libx264 @ 0x55f32f0d3a80] mb B  I16..4:  2.8%  0.0% 23.0%  B16..8: 27.9% 22.4%  7.9%  direct: 5.6%  skip:10.3%  L0:48.6% L1:31.4% BI:20.0%
[libx264 @ 0x55f32f0d3a80] coded y,u,v intra: 73.8% 60.6% 64.0% inter: 38.1% 12.9% 16.0%
[libx264 @ 0x55f32f0d3a80] i16 v,h,dc,p: 19% 35% 15% 31%
[libx264 @ 0x55f32f0d3a80] i4 v,h,dc,ddl,ddr,vr,hd,vl,hu: 25% 13% 18%  8%  6%  8%  5% 12%  5%
[libx264 @ 0x55f32f0d3a80] Weighted P-Frames: Y:5.0% UV:5.0%
[libx264 @ 0x55f32f0d3a80] kb/s:715.04
